<svg width="259" height="67" viewBox="0 0 259 67" fill="none" xmlns="http://www.w3.org/2000/svg">
<mask id="mask0_6_79" style="mask-type:luminance" maskUnits="userSpaceOnUse" x="0" y="0" width="259" height="67">
<path d="M258.768 0.583374H0.768311V66.4426H258.768V0.583374Z" fill="white"/>
</mask>
<g mask="url(#mask0_6_79)">
<path d="M76.983 30.762C76.983 28.6414 77.384 26.7795 78.1853 25.1765C78.9872 23.5736 80.0785 22.3407 81.4593 21.4776C82.8412 20.6146 84.383 20.183 86.0848 20.183C87.4413 20.183 88.6802 20.4665 89.8025 21.0338C90.9248 21.601 91.8067 22.3654 92.4481 23.3271V13.7467H98.7742V41.1191H92.4481V38.1598C91.8562 39.1462 91.011 39.9353 89.914 40.5272C88.8159 41.1191 87.5394 41.4149 86.0848 41.4149C84.383 41.4149 82.8412 40.9772 81.4593 40.1018C80.0785 39.2265 78.9872 37.9812 78.1853 36.3659C77.384 34.7505 76.983 32.8826 76.983 30.762ZM92.4481 30.799C92.4481 29.2207 92.01 27.9755 91.1338 27.063C90.2587 26.1506 89.1921 25.6945 87.9346 25.6945C86.6766 25.6945 85.6095 26.1444 84.7344 27.0445C83.8582 27.9446 83.4206 29.1836 83.4206 30.762C83.4206 32.3402 83.8582 33.5917 84.7344 34.5164C85.6095 35.4411 86.6766 35.9036 87.9346 35.9036C89.1921 35.9036 90.2587 35.4473 91.1338 34.535C92.01 33.6226 92.4481 32.3773 92.4481 30.799Z" fill="#752881"/>
<path d="M129.718 20.2332C132.283 20.2332 134.324 21.0101 135.841 22.5635C137.358 24.1172 138.116 26.2749 138.116 29.0369V41.0954H131.826V29.8876C131.826 28.556 131.475 27.5264 130.772 26.7988C130.069 26.0714 129.101 25.7078 127.868 25.7078C126.635 25.7078 125.667 26.0714 124.964 26.7988C124.261 27.5264 123.909 28.556 123.909 29.8876V41.0954H117.62V29.8876C117.62 28.556 117.269 27.5264 116.565 26.7988C115.863 26.0714 114.894 25.7078 113.661 25.7078C112.428 25.7078 111.46 26.0714 110.757 26.7988C110.054 27.5264 109.703 28.556 109.703 29.8876V41.0954H103.376V20.4552H109.703V23.0443C110.344 22.1813 111.183 21.4971 112.218 20.9916C113.254 20.486 114.426 20.2332 115.733 20.2332C117.287 20.2332 118.674 20.5662 119.895 21.2319C121.116 21.8977 122.072 22.8472 122.763 24.0801C123.478 22.9459 124.452 22.0212 125.685 21.3059C126.918 20.5908 128.262 20.2332 129.718 20.2332Z" fill="#752881"/>
<path d="M148.882 23.3881C149.499 22.4264 150.351 21.6495 151.435 21.0578C152.52 20.466 153.791 20.17 155.246 20.17C156.948 20.17 158.489 20.6016 159.87 21.4647C161.252 22.3277 162.343 23.5606 163.144 25.1636C163.947 26.7666 164.348 28.6284 164.348 30.7491C164.348 32.8696 163.947 34.7376 163.144 36.3529C162.343 37.9683 161.252 39.2135 159.87 40.0889C158.489 40.9643 156.948 41.402 155.246 41.402C153.815 41.402 152.552 41.1062 151.454 40.5142C150.356 39.9223 149.499 39.158 148.882 38.2209V50.9454H142.555V20.466H148.882V23.3881ZM157.91 30.7491C157.91 29.1707 157.472 27.9316 156.597 27.0316C155.721 26.1315 154.642 25.6815 153.359 25.6815C152.101 25.6815 151.034 26.1377 150.159 27.05C149.283 27.9625 148.845 29.2077 148.845 30.786C148.845 32.3643 149.283 33.6096 150.159 34.522C151.034 35.4343 152.101 35.8906 153.359 35.8906C154.617 35.8906 155.69 35.4282 156.578 34.5035C157.466 33.5787 157.91 32.3273 157.91 30.7491Z" fill="#752881"/>
<path fill-rule="evenodd" clip-rule="evenodd" d="M60.4571 10.3773C60.4571 5.35485 56.3792 1.27747 51.3556 1.27747H16.0199C10.9965 1.27747 6.91828 5.35485 6.91828 10.3773L5.43042 43.6012C5.43042 43.6012 12.845 40.6435 17.3359 38.8519C19.4268 38.018 21.797 38.2909 23.6435 39.5784C25.3601 40.7754 26.2425 42.8469 25.916 44.9135C25.1475 49.7778 23.8209 58.1756 23.8209 58.1756H53.0009C58.0236 58.1756 62.1021 54.098 62.1021 49.0758L60.4571 10.3773ZM41.3931 13.633C41.3931 16.8032 40.095 19.0637 38.1585 20.3319C33.6423 23.2899 26.1394 21.0275 26.1394 13.633C26.1394 11.9743 24.7925 10.6275 23.1333 10.6275C21.4742 10.6275 20.1274 11.9743 20.1274 13.633C20.1274 26.7116 33.4649 30.5914 41.4531 25.36C44.876 23.1182 47.4053 19.2376 47.4053 13.633C47.4053 11.9743 46.0582 10.6275 44.3992 10.6275C42.7401 10.6275 41.3931 11.9743 41.3931 13.633Z" fill="#FF682E"/>
<path d="M9.28582 61.6164L9.28912 61.619L5.74916 65.5238C4.92118 66.437 3.50912 66.5066 2.59565 65.6785C1.68219 64.8504 1.61279 63.4402 2.44076 62.527L5.91815 58.6954L5.92233 58.699L5.91968 58.6944L1.63261 56.506C0.513363 55.9347 0.472824 54.3533 1.55969 53.7248L17.7575 44.3751C18.9487 43.6884 20.3765 44.7833 20.0207 46.1111L15.113 64.4229C14.7882 65.6347 13.2495 66.0059 12.4085 65.0732L9.28954 61.618L9.28582 61.6164Z" fill="#752881"/>
<path d="M198.467 20.602L192.857 41.3177H185.835L182.565 27.8785L179.185 41.3177H172.2L166.553 20.602H172.906L175.841 35.4148L179.333 20.602H186.058L189.587 35.3406L192.485 20.602H198.467ZM220.617 30.6257C220.617 31.2197 220.58 31.8385 220.505 32.482H206.128C206.227 33.769 206.635 34.759 207.354 35.452C208.097 36.1202 209.001 36.4543 210.066 36.4543C211.651 36.4543 212.753 35.7861 213.372 34.4496H220.134C219.787 35.8108 219.156 37.036 218.239 38.125C217.347 39.214 216.221 40.0678 214.858 40.6866C213.496 41.3053 211.973 41.6147 210.289 41.6147C208.258 41.6147 206.45 41.1816 204.864 40.3153C203.279 39.4491 202.041 38.2116 201.149 36.6028C200.258 34.9941 199.812 33.1131 199.812 30.9598C199.812 28.8066 200.245 26.9256 201.112 25.3168C202.004 23.7081 203.242 22.4706 204.827 21.6043C206.412 20.7381 208.233 20.305 210.289 20.305C212.295 20.305 214.078 20.7257 215.639 21.5672C217.199 22.4087 218.413 23.6091 219.279 25.1683C220.171 26.7276 220.617 28.5467 220.617 30.6257ZM214.115 28.9551C214.115 27.8661 213.744 26.9998 213.001 26.3563C212.258 25.7128 211.329 25.3911 210.214 25.3911C209.149 25.3911 208.245 25.7005 207.502 26.3192C206.784 26.938 206.338 27.8166 206.165 28.9551H214.115ZM230.507 23.5348C231.101 22.5696 231.956 21.79 233.071 21.196C234.185 20.602 235.461 20.305 236.897 20.305C238.606 20.305 240.154 20.7381 241.541 21.6043C242.928 22.4706 244.018 23.7081 244.811 25.3168C245.628 26.9256 246.037 28.7942 246.037 30.9227C246.037 33.0512 245.628 34.9322 244.811 36.5657C244.018 38.1745 242.928 39.4243 241.541 40.3153C240.154 41.1816 238.606 41.6147 236.897 41.6147C235.436 41.6147 234.16 41.3301 233.071 40.7608C231.981 40.1668 231.126 39.3872 230.507 38.422V41.3177H224.154V13.8452H230.507V23.5348ZM239.572 30.9227C239.572 29.3387 239.126 28.1012 238.235 27.2102C237.368 26.2945 236.29 25.8366 235.002 25.8366C233.739 25.8366 232.662 26.2945 231.77 27.2102C230.903 28.126 230.47 29.3758 230.47 30.9598C230.47 32.5438 230.903 33.7937 231.77 34.7095C232.662 35.6252 233.739 36.0831 235.002 36.0831C236.266 36.0831 237.343 35.6252 238.235 34.7095C239.126 33.769 239.572 32.5067 239.572 30.9227Z" fill="#FF682E"/>
</g>
</svg>
