<svg width="29" height="30" viewBox="0 0 29 30" fill="none" xmlns="http://www.w3.org/2000/svg">
<path d="M4.82671 5.55304C4.02875 5.55304 3.32515 5.94493 2.89143 6.54759C2.59908 6.95257 2.72823 7.52661 3.15118 7.7902L13.6724 14.3472C14.1253 14.63 14.6985 14.63 15.1514 14.3472L25.6281 7.73404C26.0678 7.45607 26.1775 6.85194 25.8528 6.44697C25.4154 5.90301 24.7483 5.55304 23.997 5.55304H4.82671ZM25.813 10.4486C25.7128 10.4497 25.611 10.4773 25.5158 10.5375L15.1514 17.0735C14.6985 17.3551 14.1253 17.3539 13.6724 17.0711L3.30563 10.6124C2.92462 10.3752 2.43042 10.6498 2.43042 11.0991V22.3271C2.43042 23.651 3.50276 24.7234 4.82671 24.7234H23.997C25.321 24.7234 26.3933 23.651 26.3933 22.3271V11.0219C26.3933 10.684 26.1136 10.4453 25.813 10.4486Z" fill="white"/>
</svg>
