<svg width="25" height="24" viewBox="0 0 25 24" fill="none" xmlns="http://www.w3.org/2000/svg">
<path d="M4.42871 4C3.32371 4 2.42871 4.895 2.42871 6V7.73242L3.42871 8.35937L4.42871 8.98633L12.4287 14L20.4287 9.01953L21.4287 8.39648L22.4287 7.77539V6C22.4287 4.895 21.5337 4 20.4287 4H4.42871ZM4.42871 6H20.4287V6.76953L12.4287 11.748L4.42871 6.73437V6ZM2.42871 10.0918V18C2.42871 19.105 3.32371 20 4.42871 20H20.4287C21.5337 20 22.4287 19.105 22.4287 18V10.1309L20.4287 11.375V18H4.42871V11.3457L2.42871 10.0918Z" fill="white"/>
</svg>
