<svg width="58" height="58" viewBox="0 0 58 58" fill="none" xmlns="http://www.w3.org/2000/svg">
<path fill-rule="evenodd" clip-rule="evenodd" d="M55.4571 9.37727C55.4571 4.35485 51.3792 0.277466 46.3556 0.277466H11.0199C5.99653 0.277466 1.91828 4.35485 1.91828 9.37727L0.43042 42.6012C0.43042 42.6012 7.845 39.6435 12.3359 37.8519C14.4268 37.018 16.797 37.2909 18.6435 38.5784C20.3601 39.7754 21.2425 41.8469 20.916 43.9135C20.1475 48.7778 18.8209 57.1756 18.8209 57.1756H48.0009C53.0236 57.1756 57.1021 53.098 57.1021 48.0758L55.4571 9.37727ZM36.3931 12.633C36.3931 15.8032 35.095 18.0637 33.1585 19.3319C28.6423 22.2899 21.1394 20.0275 21.1394 12.633C21.1394 10.9743 19.7925 9.62745 18.1333 9.62745C16.4742 9.62745 15.1274 10.9743 15.1274 12.633C15.1274 25.7116 28.4649 29.5914 36.4531 24.36C39.876 22.1182 42.4053 18.2376 42.4053 12.633C42.4053 10.9743 41.0582 9.62745 39.3992 9.62745C37.7401 9.62745 36.3931 10.9743 36.3931 12.633Z" fill="#FF682E"/>
</svg>
