<svg width="79" height="79" viewBox="0 0 79 79" fill="none" xmlns="http://www.w3.org/2000/svg">
<path d="M39.135 6.63477C26.5899 6.63477 16.4202 16.8045 16.4202 29.3496C16.4202 42.2192 30.711 61.2153 36.6234 68.5197C37.9214 70.1227 40.3486 70.1227 41.6466 68.5197C47.559 61.2153 61.8498 42.2192 61.8498 29.3496C61.8498 16.8045 51.6801 6.63477 39.135 6.63477ZM49.9505 32.5946H48.8699V40.1651C48.8699 41.3625 47.9029 42.3295 46.7055 42.3295H44.5411C43.347 42.3295 42.38 41.3625 42.38 40.1651V32.5946H35.89V40.1651C35.89 41.3625 34.923 42.3295 33.7256 42.3295H31.5645C30.3671 42.3295 29.4001 41.3625 29.4001 40.1651V32.5946H28.3195C27.1221 32.5946 26.1551 31.6276 26.1551 30.4302C26.1551 29.7487 26.4763 29.1095 27.0215 28.7006L37.188 21.0749C38.3432 20.2085 39.9268 20.2085 41.082 21.0749L51.2485 28.7006C51.7937 29.1095 52.1149 29.7487 52.1149 30.4302C52.1149 31.6276 51.1479 32.5946 49.9505 32.5946Z" fill="white"/>
</svg>
