<svg width="24" height="24" viewBox="0 0 24 24" fill="none" xmlns="http://www.w3.org/2000/svg">
<path d="M6.49236 2.25C6.09978 2.25 5.71307 2.39062 5.3908 2.64844L5.34392 2.67187L5.32049 2.69531L2.97674 5.10937L3.00017 5.13281C2.27654 5.80078 2.05389 6.7998 2.36736 7.66406C2.37029 7.66992 2.36443 7.68164 2.36736 7.6875C3.0031 9.50683 4.62908 13.0195 7.80486 16.1953C10.9924 19.3828 14.5519 20.9443 16.3127 21.6328H16.3361C17.2472 21.9375 18.2346 21.7207 18.9377 21.1172L21.3049 18.75C21.926 18.1289 21.926 17.0508 21.3049 16.4297L18.258 13.3828L18.2346 13.3359C17.6135 12.7148 16.5119 12.7148 15.8908 13.3359L14.3908 14.8359C13.8488 14.5752 12.5568 13.9072 11.3205 12.7266C10.0929 11.5547 9.466 10.207 9.23455 9.67969L10.7345 8.17969C11.3644 7.5498 11.3762 6.50098 10.7111 5.88281L10.7345 5.85937L10.6642 5.78906L7.66424 2.69531L7.6408 2.67187L7.59392 2.64844C7.27166 2.39062 6.88494 2.25 6.49236 2.25ZM6.49236 3.75C6.54803 3.75 6.60369 3.77637 6.65642 3.82031L9.65642 6.89062L9.72674 6.96094C9.72088 6.95508 9.77068 7.03418 9.67986 7.125L7.80486 9L7.4533 9.32812L7.61736 9.79687C7.61736 9.79687 8.47869 12.1025 10.2892 13.8281L10.4533 13.9687C12.1965 15.5596 14.2502 16.4297 14.2502 16.4297L14.7189 16.6406L16.9455 14.4141C17.0744 14.2852 17.051 14.2852 17.1799 14.4141L20.2502 17.4844C20.3791 17.6133 20.3791 17.5664 20.2502 17.6953L17.9533 19.9922C17.6076 20.2881 17.2414 20.3496 16.8049 20.2031C15.1056 19.5352 11.8039 18.085 8.85955 15.1406C5.89178 12.1729 4.34197 8.80664 3.77361 7.17187C3.65935 6.86719 3.74139 6.41602 4.00799 6.1875L4.05486 6.14062L6.3283 3.82031C6.38103 3.77637 6.4367 3.75 6.49236 3.75Z" fill="white"/>
</svg>
