<svg width="29" height="30" viewBox="0 0 29 30" fill="none" xmlns="http://www.w3.org/2000/svg">
<path d="M23.1458 19.0319L20.1265 18.6845C19.3956 18.6006 18.6767 18.8522 18.1615 19.3674L15.9449 21.584C14.2448 20.7213 12.7027 19.5963 11.3704 18.2627C10.0369 16.9304 8.91182 15.3884 8.04915 13.6882L10.2657 11.4716C10.7809 10.9564 11.0325 10.2375 10.9487 9.50668L10.6012 6.48736C10.4574 5.27723 9.439 4.36664 8.21689 4.36664H6.1441C4.7902 4.36664 3.66394 5.49289 3.74781 6.8468C4.06532 11.9617 6.26871 16.5614 9.67024 19.9629C13.0718 23.3644 17.6715 25.5678 22.7863 25.8853C24.1402 25.9692 25.2665 24.8429 25.2665 23.489V21.4162C25.2665 20.1941 24.3559 19.1757 23.1458 19.0319Z" fill="white"/>
</svg>
